<svg width="34" height="34" viewBox="0 0 34 34" fill="none" xmlns="http://www.w3.org/2000/svg">
<path opacity="0.9" fill-rule="evenodd" clip-rule="evenodd" d="M28.6572 26.2943C32.029 22.9167 34 19.3986 34 15.302C34 6.98889 26.3894 0.25 16.9999 0.25C7.61066 0.25 0 6.98889 0 15.3022C0 23.6155 7.85687 29.3225 17.2464 29.3225V32.0793C17.2464 32.9528 18.1521 33.515 18.9201 33.0988C21.3196 31.7985 25.7662 29.1904 28.6572 26.2943ZM8.74194 13.2722C10.0839 13.2722 11.1716 14.3521 11.1716 15.6824C11.1716 17.0153 10.0839 18.0951 8.74194 18.0951C7.40231 18.0951 6.31447 17.0153 6.31447 15.6824C6.31447 14.3521 7.40231 13.2722 8.74194 13.2722ZM19.4286 15.6824C19.4286 14.3521 18.3413 13.2722 17 13.2722C15.6589 13.2722 14.5715 14.3521 14.5715 15.6824C14.5715 17.0153 15.659 18.0951 17 18.0951C18.3413 18.0951 19.4286 17.0153 19.4286 15.6824ZM25.2577 13.2722C26.5994 13.2722 27.6856 14.3521 27.6856 15.6824C27.6856 17.0153 26.5995 18.0951 25.2577 18.0951C23.916 18.0951 22.8284 17.0153 22.8285 15.6824C22.8285 14.3521 23.9161 13.2722 25.2577 13.2722Z" fill="white"/>
</svg>
