<svg width="26" height="21" viewBox="0 0 26 21" fill="none" xmlns="http://www.w3.org/2000/svg">
<path fill-rule="evenodd" clip-rule="evenodd" d="M8.63719 2.91842C6.94484 2.91842 5.5372 4.32395 5.5372 6.10225C5.5372 7.88054 6.94484 9.28608 8.63719 9.28608C10.3295 9.28608 11.7372 7.88054 11.7372 6.10225C11.7372 4.32395 10.3295 2.91842 8.63719 2.91842ZM3.43079 6.10225C3.43079 3.20046 5.74201 0.812012 8.63719 0.812012C11.5324 0.812012 13.8436 3.20046 13.8436 6.10225C13.8436 9.00403 11.5324 11.3925 8.63719 11.3925C5.74201 11.3925 3.43079 9.00403 3.43079 6.10225ZM8.63719 15.121C5.88489 15.121 3.53991 17.0044 2.80735 19.6063C2.70226 19.9795 2.34489 20.2406 1.96226 20.1777L1.26943 20.0638C0.886792 20.0008 0.624692 19.6384 0.719396 19.2624C1.62099 15.6824 4.81119 13.0146 8.63719 13.0146C12.4631 13.0146 15.6534 15.6824 16.555 19.2624C16.6497 19.6384 16.3876 20.0008 16.005 20.0638L15.3121 20.1777C14.9295 20.2406 14.5721 19.9795 14.467 19.6063C13.7345 17.0044 11.3895 15.121 8.63719 15.121Z" fill="black" fill-opacity="0.4"/>
<path fill-rule="evenodd" clip-rule="evenodd" d="M19.1693 16.2846C18.6388 16.2846 18.13 16.3765 17.6559 16.546C17.2908 16.6764 16.8655 16.5565 16.6801 16.2159L16.3445 15.5991C16.1592 15.2585 16.284 14.8283 16.6422 14.6799C17.423 14.3565 18.2765 14.1782 19.1693 14.1782C22.2975 14.1782 24.8982 16.3501 25.6785 19.2646C25.7788 19.6391 25.5156 20.0015 25.1328 20.0639L24.4398 20.1768C24.0571 20.2391 23.7012 19.9768 23.5853 19.6068C22.976 17.6628 21.2125 16.2846 19.1693 16.2846Z" fill="black" fill-opacity="0.4"/>
<path fill-rule="evenodd" clip-rule="evenodd" d="M19.1689 7.13082C18.1994 7.13082 17.4135 7.91672 17.4135 8.88615C17.4135 9.85559 18.1994 10.6415 19.1689 10.6415C20.1383 10.6415 20.9242 9.85559 20.9242 8.88615C20.9242 7.91672 20.1383 7.13082 19.1689 7.13082ZM15.3071 8.88615C15.3071 6.75335 17.0361 5.02441 19.1689 5.02441C21.3017 5.02441 23.0306 6.75335 23.0306 8.88615C23.0306 11.019 21.3017 12.7479 19.1689 12.7479C17.0361 12.7479 15.3071 11.019 15.3071 8.88615Z" fill="black" fill-opacity="0.4"/>
</svg>
