<svg width="26" height="24" viewBox="0 0 26 24" fill="none" xmlns="http://www.w3.org/2000/svg">
<path fill-rule="evenodd" clip-rule="evenodd" d="M12.7243 1.16532C13.117 0.843333 13.6824 0.843333 14.0751 1.16531L25.5099 10.5401C25.858 10.8255 25.9892 11.2987 25.8377 11.7226C25.6861 12.1464 25.2846 12.4293 24.8345 12.4293H23.179L22.3324 21.6818C22.2488 22.5959 21.4822 23.2955 20.5642 23.2955H6.23597C5.31802 23.2955 4.55149 22.5959 4.46783 21.6818L3.62118 12.4293H1.96527C1.51519 12.4293 1.11367 12.1464 0.962149 11.7226C0.810619 11.2988 0.941788 10.8255 1.28984 10.5401L12.7243 1.16532ZM13.3997 3.36674L4.94488 10.2986H5.56574L6.56004 21.1649H12.3343V15.706C12.3343 15.3139 12.6523 14.9958 13.0446 14.9958H13.7548C14.147 14.9958 14.465 15.3139 14.465 15.706V21.1649H20.2401L21.2344 10.2986H21.8548L13.3997 3.36674Z" fill="black" fill-opacity="0.4"/>
</svg>
