<svg width="23" height="23" viewBox="0 0 23 23" fill="none" xmlns="http://www.w3.org/2000/svg">
<path fill-rule="evenodd" clip-rule="evenodd" d="M20.0988 16.4787H14.265L11.5915 19.7465L8.91777 16.4787H3.08428L3.12143 2.3668H20.0614L20.0988 16.4787ZM20.4526 18.5955H15.2682L12.9568 21.4207C12.2511 22.2833 10.9321 22.2833 10.2263 21.4207L7.91462 18.5955H2.73055C1.7545 18.5955 0.963987 17.803 0.966559 16.8269L1.00557 2.00935C1.00812 1.03694 1.79714 0.25 2.76956 0.25H20.4132C21.3857 0.25 22.1746 1.03692 22.1773 2.00931L22.2165 16.8268C22.2192 17.8029 21.4287 18.5955 20.4526 18.5955ZM8.06322 8.71718C7.67352 8.71718 7.35759 9.03312 7.35759 9.42282V10.1283C7.35759 10.518 7.67352 10.834 8.06322 10.834H15.1191C15.5088 10.834 15.8248 10.518 15.8248 10.1283V9.42282C15.8248 9.03312 15.5088 8.71718 15.1191 8.71718H8.06322Z" fill="black" fill-opacity="0.4"/>
</svg>
