<svg width="19" height="22" viewBox="0 0 19 22" fill="none" xmlns="http://www.w3.org/2000/svg">
<path fill-rule="evenodd" clip-rule="evenodd" d="M9.80813 2.54559C7.73691 2.54559 6.05789 4.2246 6.05789 6.29583C6.05789 8.36705 7.73691 10.0461 9.80813 10.0461C11.8794 10.0461 13.5584 8.36705 13.5584 6.29583C13.5584 4.2246 11.8794 2.54559 9.80813 2.54559ZM4.01231 6.29583C4.01231 3.09489 6.6072 0.5 9.80813 0.5C13.0091 0.5 15.604 3.09489 15.604 6.29583C15.604 9.49676 13.0091 12.0917 9.80813 12.0917C6.6072 12.0917 4.01231 9.49676 4.01231 6.29583ZM9.80813 15.501C6.49817 15.501 3.71126 17.748 2.89248 20.7999C2.79491 21.1636 2.44655 21.4155 2.07514 21.3532L1.40268 21.2404C1.03127 21.1781 0.778233 20.8253 0.868035 20.4596C1.85496 16.4384 5.48226 13.4554 9.80813 13.4554C14.134 13.4554 17.7613 16.4384 18.7482 20.4596C18.838 20.8253 18.585 21.1781 18.2136 21.2404L17.5411 21.3532C17.1697 21.4155 16.8214 21.1636 16.7238 20.7999C15.905 17.748 13.1181 15.501 9.80813 15.501Z" fill="white" fill-opacity="0.65"/>
</svg>
